<svg xmlns="http://www.w3.org/2000/svg" xmlns:xlink="http://www.w3.org/1999/xlink" width="3501" height="1577" viewBox="0 0 3501 1577">
  <defs>
    <radialGradient id="radial-gradient" cx="0.492" cy="0.461" r="0.502" gradientTransform="translate(-0.005 0.005) rotate(-0.564)" gradientUnits="objectBoundingBox">
      <stop offset="0" stop-color="#251c5d"/>
      <stop offset="0" stop-color="#f74d6b"/>
      <stop offset="1" stop-color="#f74d6b" stop-opacity="0"/>
    </radialGradient>
    <radialGradient id="radial-gradient-2" cx="0.492" cy="0.461" r="0.502" gradientTransform="translate(-0.005 0.005) rotate(-0.564)" gradientUnits="objectBoundingBox">
      <stop offset="0" stop-color="#251c5d"/>
      <stop offset="0" stop-color="#58939d"/>
      <stop offset="1" stop-color="#f74d6b" stop-opacity="0"/>
    </radialGradient>
    <radialGradient id="radial-gradient-3" cx="0.492" cy="0.461" r="0.502" gradientTransform="translate(-0.005 0.005) rotate(-0.564)" gradientUnits="objectBoundingBox">
      <stop offset="0" stop-color="#f74d6b" stop-opacity="0.588"/>
      <stop offset="0" stop-color="#f74d6b"/>
      <stop offset="1" stop-color="#f74d6b" stop-opacity="0"/>
    </radialGradient>
    <radialGradient id="radial-gradient-4" cx="0.492" cy="0.461" r="0.502" gradientTransform="translate(-0.005 0.005) rotate(-0.564)" gradientUnits="objectBoundingBox">
      <stop offset="0" stop-color="#f74d6b"/>
      <stop offset="0" stop-color="#f74d6b"/>
      <stop offset="1" stop-color="#f74d6b" stop-opacity="0"/>
    </radialGradient>
    <clipPath id="clip-path">
      <path id="Path_9083" data-name="Path 9083" d="M0,135.063H428.482v-231.3H0Z" transform="translate(0 96.233)" fill="#fff"/>
    </clipPath>
    <clipPath id="clip-path-2">
      <path id="Path_9083-2" data-name="Path 9083" d="M0-53.116H79.875V-96.233H0Z" transform="translate(0 96.233)" fill="none"/>
    </clipPath>
  </defs>
  <g id="Group_1735" data-name="Group 1735" transform="translate(696 150)">
    <rect id="Rectangle_697" data-name="Rectangle 697" width="1647" height="538" transform="translate(-452 -150)" opacity="0.149" fill="url(#radial-gradient)"/>
    <g id="Group_1724" data-name="Group 1724" transform="translate(203)" opacity="0.757">
      <g id="Group_1725" data-name="Group 1725">
        <rect id="Rectangle_685" data-name="Rectangle 685" width="1405" height="458" transform="translate(-899 199)" opacity="0.279" fill="url(#radial-gradient-2)"/>
        <path id="Path_9181" data-name="Path 9181" d="M0,0H2350V766H0Z" transform="translate(252 661)" opacity="0.094" fill="url(#radial-gradient-3)"/>
        <path id="Path_9168" data-name="Path 9168" d="M0,0H1405V458H0Z" transform="translate(483 40)" opacity="0.78" fill="url(#radial-gradient-4)"/>
        <rect id="Rectangle_677" data-name="Rectangle 677" width="1647" height="538" transform="translate(513 123)" opacity="0.509" fill="url(#radial-gradient)"/>
        <g id="Group_1722" data-name="Group 1722" transform="translate(-384.607 665.657)" opacity="0.297">
          <g id="Group_1650" data-name="Group 1650" transform="translate(307 -124.233)" opacity="0.228" clip-path="url(#clip-path)">
            <g id="Group_1649" data-name="Group 1649" transform="translate(0)">
              <path id="Path_9082" data-name="Path 9082" d="M104.612,135.063a10.784,10.784,0,0,1-9.631-5.934L35.184,10.451,9.887,61.29A10.783,10.783,0,0,1,.23,67.273H-63.749A10.786,10.786,0,0,1-74.536,56.486,10.785,10.785,0,0,1-63.749,45.7h57.3L25.464-18.446A10.788,10.788,0,0,1,35.1-24.428a10.7,10.7,0,0,1,9.66,5.932L93.827,78.9V-85.446a10.786,10.786,0,0,1,10.787-10.787h69.81a10.785,10.785,0,0,1,10.785,10.787V79.29H198.4V19.755a10.783,10.783,0,0,1,3.158-7.629L235.36-21.679a10.79,10.79,0,0,1,15.255,0l34.9,34.906a10.785,10.785,0,0,1,3.161,7.626V45.2h54.48a10.786,10.786,0,1,1,0,21.571H277.892a10.785,10.785,0,0,1-10.787-10.785V25.322L242.989,1.205,219.968,24.221V90.077a10.785,10.785,0,0,1-10.785,10.785H174.424a10.785,10.785,0,0,1-10.787-10.785V-74.662H115.4V124.277a10.791,10.791,0,0,1-10.789,10.787" transform="translate(74.536 96.233)" fill="none"/>
            </g>
          </g>
        </g>
      </g>
    </g>
    <rect id="Rectangle_744" data-name="Rectangle 744" width="1647" height="538" transform="translate(-617 651)" opacity="0.091" fill="url(#radial-gradient)"/>
  </g>
</svg>
